<svg width="22" height="22" fill="none" xmlns="http://www.w3.org/2000/svg"><path d="M16.726 14.553c-.719-.71-1.616-.71-2.33 0-.545.54-1.09 1.08-1.626 1.63-.146.151-.27.183-.448.083-.353-.193-.728-.348-1.067-.559-1.58-.993-2.902-2.27-4.074-3.708-.582-.714-1.1-1.479-1.46-2.34-.074-.173-.06-.288.082-.43.544-.526 1.076-1.066 1.611-1.607.746-.75.746-1.63-.004-2.385-.426-.43-.852-.851-1.278-1.282-.44-.44-.874-.883-1.318-1.318-.719-.7-1.616-.7-2.33.005-.55.54-1.076 1.094-1.635 1.625-.517.49-.778 1.09-.833 1.79-.087 1.14.192 2.215.586 3.264.806 2.17 2.033 4.097 3.52 5.864 2.01 2.39 4.41 4.28 7.216 5.645 1.263.613 2.573 1.085 3.996 1.163.98.055 1.832-.193 2.514-.957.467-.522.993-.998 1.488-1.497.732-.742.737-1.639.009-2.372-.87-.874-1.745-1.744-2.619-2.614zm-.874-3.648l1.689-.289a7.55 7.55 0 00-2.11-4.074 7.51 7.51 0 00-4.304-2.147l-.238 1.698a5.826 5.826 0 013.333 1.662c.86.86 1.424 1.95 1.63 3.15zm2.641-7.343A12.457 12.457 0 0011.351 0l-.238 1.698a10.801 10.801 0 016.172 3.077 10.792 10.792 0 013.026 5.837L22 10.323a12.548 12.548 0 00-3.507-6.761z" fill="#000"/></svg>