<svg width="22" height="23" fill="none" xmlns="http://www.w3.org/2000/svg"><path d="M21.944 6.47c-.052-1.17-.24-1.974-.511-2.67a5.37 5.37 0 00-1.273-1.952A5.416 5.416 0 0018.213.58c-.7-.27-1.5-.46-2.67-.511C14.367.013 13.993 0 11.005 0 8.017 0 7.643.013 6.47.064 5.3.116 4.496.305 3.8.576c-.74.28-1.401.71-1.952 1.272A5.417 5.417 0 00.58 3.796c-.27.7-.46 1.5-.511 2.669C.013 7.643 0 8.017 0 11.005c0 2.987.013 3.36.064 4.534.052 1.17.241 1.973.512 2.67.28.739.714 1.401 1.272 1.951a5.41 5.41 0 001.948 1.268c.7.271 1.5.46 2.67.512 1.172.051 1.547.064 4.534.064 2.988 0 3.361-.013 4.535-.064 1.17-.052 1.973-.24 2.67-.512a5.628 5.628 0 003.22-3.22c.27-.7.459-1.5.51-2.669.052-1.173.065-1.547.065-4.535 0-2.987-.004-3.361-.056-4.535zm-1.981 8.983c-.048 1.075-.228 1.655-.379 2.042a3.65 3.65 0 01-2.089 2.09c-.387.15-.971.33-2.042.377-1.16.052-1.508.065-4.444.065s-3.289-.013-4.445-.065c-1.075-.047-1.655-.227-2.042-.378a3.387 3.387 0 01-1.264-.82 3.421 3.421 0 01-.82-1.264c-.151-.387-.332-.972-.379-2.042-.052-1.161-.064-1.51-.064-4.445 0-2.936.012-3.289.064-4.445.047-1.074.228-1.655.378-2.042.177-.477.456-.91.826-1.263a3.416 3.416 0 011.263-.821c.387-.15.972-.331 2.042-.379C7.728 2.012 8.078 2 11.013 2c2.94 0 3.288.013 4.445.064 1.074.048 1.655.228 2.042.379.477.176.91.455 1.263.82.365.357.645.787.821 1.264.15.387.331.972.379 2.042.051 1.16.064 1.509.064 4.445 0 2.936-.013 3.28-.064 4.44z" fill="#000"/><path d="M11.004 5.352a5.654 5.654 0 00-5.652 5.653 5.654 5.654 0 005.652 5.653 5.654 5.654 0 005.653-5.653 5.654 5.654 0 00-5.653-5.653zm0 9.32a3.667 3.667 0 11.001-7.335 3.667 3.667 0 010 7.335zM18.2 5.129a1.32 1.32 0 11-2.64 0 1.32 1.32 0 012.64 0z" fill="#000"/></svg>