<svg width="22" height="13" fill="none" xmlns="http://www.w3.org/2000/svg"><path d="M18.256 7.455c-.356-.455-.254-.658 0-1.065.005-.004 2.94-4.114 3.243-5.508h.002c.15-.509 0-.882-.727-.882H18.37c-.613 0-.895.32-1.046.679 0 0-1.225 2.97-2.957 4.894-.56.556-.818.735-1.123.735-.15 0-.385-.178-.385-.686V.882c0-.61-.17-.882-.678-.882H8.398c-.384 0-.612.284-.612.549 0 .577.866.71.956 2.335V6.41c0 .772-.139.915-.446.915-.818 0-2.802-2.982-3.978-6.395C4.08.268 3.848 0 3.23 0H.825C.138 0 0 .322 0 .68c0 .633.818 3.782 3.802 7.942C5.792 11.462 8.593 13 11.142 13c1.531 0 1.718-.342 1.718-.93 0-2.713-.138-2.97.63-2.97.355 0 .967.18 2.397 1.549C17.522 12.273 17.79 13 18.705 13h2.406c.685 0 1.033-.342.833-1.016-.457-1.418-3.549-4.334-3.688-4.53z" fill="#000"/></svg>