<svg width="1161" height="696" fill="none" xmlns="http://www.w3.org/2000/svg"><path fill="#EAFFD0" d="M0 0h1161v696H0z"/><rect x="661" width="100" height="99" rx="25" fill="#F38181"/><rect x="661" y="298" width="100" height="100" rx="25" fill="#F38181"/><rect x="661" y="597" width="100" height="99" rx="25" fill="#F38181"/><path d="M661 149c0-27.614 22.386-50 50-50h50v100h-50c-27.614 0-50-22.386-50-50zm0 298.5c0-27.338 22.162-49.5 49.5-49.5H761v99h-50.5c-27.338 0-49.5-22.162-49.5-49.5z" fill="#D7FFA5"/><path d="M661 264c0-35.899 29.101-65 65-65h35v99H661v-34zm0 298c0-35.899 29.101-65 65-65h35v100H661v-35zM761 65c0-35.898 29.101-65 65-65h35v34c0 35.898-29.101 65-65 65h-35V65zm0 298c0-35.899 29.101-65 65-65h35v35c0 35.899-29.101 65-65 65h-35v-35zm0 299c0-35.899 29.101-65 65-65h35v34c0 35.899-29.101 65-65 65h-35v-34z" fill="#FCE38A"/><path d="M761 99h100v35c0 35.899-29.101 65-65 65h-35V99zm0 299h100v34c0 35.899-29.101 65-65 65h-35v-99z" fill="#95E1D3"/><path d="M761 199h50.5c27.338 0 49.5 22.162 49.5 49.5S838.838 298 811.5 298H761v-99zm0 298h50c27.614 0 50 22.386 50 50s-22.386 50-50 50h-50V497z" fill="#F38181"/><path d="M861 0h35c35.899 0 65 29.102 65 65v34H861V0zm0 298h35c35.899 0 65 29.101 65 65v35H861V298zm0 299h35c35.899 0 65 29.101 65 65v34H861v-99z" fill="#D7FFA5"/><path d="M861 149c0-27.614 22.386-50 50-50s50 22.386 50 50-22.386 50-50 50h-50v-50zm0 299c0-27.614 22.637-50 50.251-50C938.589 398 961 420.162 961 447.5S938.838 497 911.5 497H861v-49z" fill="#F38181"/><path d="M861 264c0-35.899 29.101-65 65-65h35v34c0 35.899-29.101 65-65 65h-35v-34zm0 298c0-35.899 29.101-65 65-65h35v35c0 35.899-29.101 65-65 65h-35v-35zM961 0h100v99h-35c-35.899 0-65-29.102-65-65V0zm0 298h100v100h-35c-35.899 0-65-29.101-65-65v-35zm0 299h100v99h-35c-35.899 0-65-29.101-65-65v-34z" fill="#95E1D3"/><path d="M961 99h100v50c0 27.614-22.39 50-50 50-27.614 0-50-22.386-50-50V99zm0 299h100v49c0 27.614-22.39 50-50 50-27.614 0-50-22.386-50-50v-49z" fill="#FCE38A"/><path d="M961 199h100v99h-35c-35.899 0-65-29.101-65-65v-34zm0 298h100v100h-35c-35.899 0-65-29.101-65-65v-35z" fill="#D7FFA5"/><path d="M1061 50c0-27.614 22.39-50 50-50s50 22.386 50 50v49h-100V50zm0 298c0-27.614 22.39-50 50-50s50 22.386 50 50v50h-100v-50zm0 299c0-27.614 22.39-50 50-50s50 22.386 50 50v49h-100v-49z" fill="#F38181"/><path d="M1061 99h35c35.9 0 65 29.101 65 65v35h-35c-35.9 0-65-29.101-65-65V99zm0 299h35c35.9 0 65 29.101 65 65v34h-35c-35.9 0-65-29.101-65-65v-34z" fill="#95E1D3"/><rect x="1061" y="199" width="100" height="99" rx="25" fill="#FCE38A"/><rect x="1061" y="497" width="100" height="100" rx="25" fill="#FCE38A"/></svg>