<svg width="38" height="38" fill="none" xmlns="http://www.w3.org/2000/svg"><path d="M38 19C38 8.524 29.476 0 19 0S0 8.524 0 19s8.524 19 19 19 19-8.524 19-19zM1.898 19C1.898 9.57 9.57 1.898 19 1.898S36.102 9.57 36.102 19 28.43 36.102 19 36.102 1.898 28.43 1.898 19z" fill="#000"/><path d="M19.674 27.927l5.34-5.34a.945.945 0 000-1.34.945.945 0 00-1.341 0l-3.72 3.72v-14.22a.952.952 0 10-1.906 0V24.96l-3.72-3.72a.945.945 0 00-1.34 0 .945.945 0 000 1.34l5.339 5.34a.944.944 0 00.674.279.936.936 0 00.674-.271z" fill="#000"/></svg>