<svg width="36" height="42" fill="none" xmlns="http://www.w3.org/2000/svg"><path d="M23.683 17.956a1.313 1.313 0 00-1.857 0l-2.455 2.456c-1.501-.63-4.006-3.13-4.64-4.64l2.455-2.457a1.312 1.312 0 000-1.856l-5.104-5.104a1.313 1.313 0 00-1.857 0L7.441 9.139c-1.38 1.38-1.55 3.679-.475 6.47 3.094 8.046 14.69 16.44 19.037 12.092l2.784-2.784a1.312 1.312 0 000-1.857l-5.104-5.104zm.464 7.889c-.577.576-1.984.53-3.673-.119-4.363-1.678-9.375-6.683-11.058-11.058-.65-1.69-.695-3.096-.119-3.673l1.856-1.856 3.249 3.248-1.856 1.856c-.495.495-.884 1.447.075 3.174 1.408 2.533 6.216 7.24 8.277 5.18l1.857-1.857 3.248 3.248-1.856 1.857z" fill="#fff"/><path d="M28.22 0H7.218C3.239 0 0 3.238 0 7.219v21c0 3.98 3.238 7.22 7.219 7.22h5.82l3.554 5.924c.508.847 1.74.852 2.251 0l3.556-5.925h5.82c3.98 0 7.218-3.238 7.218-7.219v-21C35.438 3.239 32.2 0 28.22 0zm4.593 28.22a4.599 4.599 0 01-4.594 4.593h-6.562c-.461 0-.889.242-1.126.637l-2.812 4.687-2.812-4.687a1.313 1.313 0 00-1.126-.637H7.22a4.599 4.599 0 01-4.594-4.594v-21A4.599 4.599 0 017.22 2.625h21a4.599 4.599 0 014.594 4.594v21z" fill="#fff"/></svg>