<svg width="59" height="57" fill="none" xmlns="http://www.w3.org/2000/svg"><path d="M41.179 0H17.063C7.655 0 0 7.491 0 16.7v23.6C0 49.51 7.655 57 17.063 57H41.18c9.408 0 17.063-7.491 17.063-16.7V16.7C58.242 7.49 50.588 0 41.18 0zm14.788 40.3c0 7.981-6.634 14.473-14.788 14.473H17.063c-8.154 0-14.788-6.492-14.788-14.472V16.699c0-7.98 6.634-14.472 14.788-14.472H41.18c8.154 0 14.788 6.492 14.788 14.472v23.602z" fill="#fff"/><path d="M41.18 4.898H17.062c-6.648 0-12.058 5.294-12.058 11.801v23.602c0 6.507 5.41 11.8 12.058 11.8h6.94c.628 0 1.137-.498 1.137-1.113s-.51-1.113-1.138-1.113h-6.939c-5.394 0-9.783-4.295-9.783-9.574V16.699c0-5.279 4.39-9.574 9.783-9.574H41.18c5.394 0 9.783 4.295 9.783 9.574v23.602c0 5.279-4.389 9.574-9.783 9.574h-6.863c-.628 0-1.138.498-1.138 1.113s.51 1.114 1.138 1.114h6.863c6.649 0 12.058-5.294 12.058-11.801V16.699c0-6.507-5.409-11.8-12.058-11.8z" fill="#fff"/><path d="M29.925 50.201a1.159 1.159 0 00-1.608 0 1.11 1.11 0 00-.334.787c0 .293.122.58.334.787a1.159 1.159 0 001.608 0 1.11 1.11 0 00.334-.787c0-.292-.122-.58-.334-.787zm-9.923-32.866a1.155 1.155 0 00-1.608-.052l-.05.047a1.096 1.096 0 00-.047 1.574c.224.232.525.349.828.349.28 0 .56-.1.78-.304l.045-.04a1.097 1.097 0 00.052-1.574z" fill="#fff"/><path d="M29.12 13.137c-2.498 0-4.984.589-7.19 1.703a1.102 1.102 0 00-.49 1.5c.289.546.975.76 1.533.479a13.507 13.507 0 016.148-1.456c7.401 0 13.423 5.893 13.423 13.137 0 7.244-6.022 13.137-13.423 13.137S15.698 35.744 15.698 28.5c0-2.273.602-4.513 1.742-6.477a1.1 1.1 0 00-.428-1.518 1.151 1.151 0 00-1.55.419 15.115 15.115 0 00-2.04 7.576c0 8.471 7.043 15.363 15.699 15.363 8.656 0 15.698-6.892 15.698-15.363s-7.042-15.363-15.698-15.363z" fill="#fff"/><path d="M29.121 18.48c-5.645 0-10.238 4.495-10.238 10.02 0 5.525 4.593 10.02 10.238 10.02S39.36 34.025 39.36 28.5c0-5.525-4.593-10.02-10.238-10.02zm0 17.813c-4.39 0-7.963-3.496-7.963-7.793 0-4.297 3.572-7.793 7.963-7.793 4.39 0 7.963 3.496 7.963 7.793 0 4.297-3.572 7.793-7.963 7.793zm14.93-26.635c-2.383 0-4.323 1.898-4.323 4.23 0 2.333 1.94 4.23 4.323 4.23 2.384 0 4.323-1.897 4.323-4.23 0-2.332-1.94-4.23-4.323-4.23zm0 6.234c-1.129 0-2.047-.899-2.047-2.004s.918-2.004 2.047-2.004c1.13 0 2.048.9 2.048 2.004 0 1.105-.919 2.004-2.048 2.004z" fill="#fff"/></svg>