<svg width="139" height="76" fill="none" xmlns="http://www.w3.org/2000/svg"><path d="M79.672 75.226H57.48V64.594h-7.774l-2.313 5.547h-13.53l10.383-25.155h-20.26L13.559 70.14H0L26.891 5.037h13.573L30.066 30.193h20.26l6.335-15.352h-1.256V0H77.6v14.841h-1.242l8.465 20.612V20.58h12.36l6.221 15.064V.988h13.136v54.376H139V70.14h-34.821l-.592-1.323-5.644-13.582V70.14H85.641L74.353 42.898l.635 17.44h4.642l.043 14.888zm-17.96-4.782H75.44v-5.277h-4.46l-1.707-45.91 19.061 46.102h5.418V33.732l13.079 31.627h27.935v-5.26h-22.419V5.77h-4.67v51.442l-13.149-31.85h-5.432v31.675l-19.385-46.98h3.654V4.783H59.638v5.277h3.668L53.021 34.975H23.392L33.862 9.82h-4.234L6.645 65.359h4.233l10.398-25.155h29.516L40.464 65.359h4.233l2.314-5.596h16.31l2.214 5.357h-3.823v5.324zm4.233-14.49l-8.663-21.027 7.252-17.535 1.41 38.562zm-4.826-1.42H49.183l5.982-14.506 5.954 14.507z" fill="#FAD586"/></svg>