<svg width="59" height="57" fill="none" xmlns="http://www.w3.org/2000/svg"><path d="M50.086 38.16l-.578-.923a24.441 24.441 0 00-4.057-4.915l-1.93-1.798a.486.486 0 01-.065-.646l2.635-3.674c.38-.53.73-1.088 1.042-1.659l2.252-4.123a2.238 2.238 0 00-.057-2.264 2.34 2.34 0 00-2.012-1.118l-4.874-.006h-.003a2.576 2.576 0 00-2.356 1.507l-.516 1.15a28.42 28.42 0 01-5.345 7.963V19.25c0-1.222-1.017-2.217-2.266-2.217h-6.902c-1.134 0-2.056.903-2.056 2.012 0 .423.134.83.386 1.173l.483.659c.474.645.724 1.406.724 2.2v6.141c-.851-.967-1.888-2.281-2.765-3.792-1.344-2.313-2.307-5.01-2.761-6.413-.384-1.184-1.495-1.98-2.764-1.98h-4.936c-.697 0-1.338.312-1.759.855a2.105 2.105 0 00-.364 1.889l.92 3.198a29.11 29.11 0 002.306 5.673 1.15 1.15 0 001.536.47c.556-.286.771-.959.48-1.503a26.903 26.903 0 01-2.132-5.243l-.895-3.112H16.3a.62.62 0 01.595.426c.482 1.486 1.505 4.35 2.952 6.84 1.187 2.044 2.627 3.747 3.626 4.815.548.585 1.39.778 2.146.49a1.9 1.9 0 001.246-1.782v-6.971a5.88 5.88 0 00-1.15-3.5l-.234-.318h6.465v8.928c0 .653.335 1.254.896 1.607a1.98 1.98 0 001.866.13l.47-.21c.215-.096.407-.23.57-.4a30.65 30.65 0 005.901-8.729l.517-1.15a.298.298 0 01.272-.175l4.874.005c.017 0 .042 0 .063.035.022.035.01.057.002.071l-2.251 4.123a13.88 13.88 0 01-.899 1.43l-2.635 3.674a2.665 2.665 0 00.36 3.537l1.929 1.799a22.21 22.21 0 013.686 4.464l.578.923c.013.022.056.09.003.182s-.133.092-.16.092H43.78c-.54 0-1.066-.218-1.443-.597l-4.208-4.234a7.265 7.265 0 00-3.639-1.981 2.12 2.12 0 00-1.762.404 2.025 2.025 0 00-.782 1.598v4.16c0 .358-.298.65-.664.65a15.23 15.23 0 01-9.072-3.006 27.688 27.688 0 01-2.957-2.56 1.155 1.155 0 00-1.61-.016 1.097 1.097 0 00-.015 1.574 29.922 29.922 0 003.2 2.77c2.984 2.234 6.697 3.464 10.454 3.464 1.62 0 2.939-1.29 2.939-2.876V35.01c.866.227 1.65.676 2.277 1.307l4.208 4.234a4.36 4.36 0 003.074 1.271h4.208a2.47 2.47 0 002.145-1.23 2.365 2.365 0 00-.048-2.432z" fill="#fff"/><path d="M16.559 30.9l-.013-.018a1.154 1.154 0 00-1.587-.256 1.098 1.098 0 00-.261 1.554l.007.01.93-.642-.925.649c.222.303.571.464.926.464.229 0 .46-.067.661-.208a1.1 1.1 0 00.262-1.554zm7.372 18.53H14.66c-.628 0-1.137.498-1.137 1.113s.509 1.113 1.137 1.113h9.271c.628 0 1.137-.498 1.137-1.113s-.509-1.113-1.137-1.113zm5.176 0h-.014c-.628 0-1.137.498-1.137 1.113s.509 1.113 1.137 1.113h.014c.628 0 1.137-.498 1.137-1.113s-.51-1.113-1.137-1.113z" fill="#fff"/><path d="M51.361 0H8.135C3.995 0 .627 3.296.627 7.348v42.304C.627 53.704 3.995 57 8.135 57H51.36c4.14 0 7.508-3.296 7.508-7.348V7.348C58.869 3.296 55.501 0 51.361 0zm5.233 49.652c0 2.824-2.348 5.121-5.233 5.121H8.135c-2.886 0-5.233-2.297-5.233-5.12V7.347c0-2.824 2.347-5.121 5.233-5.121H51.36c2.886 0 5.233 2.297 5.233 5.12v42.305z" fill="#fff"/></svg>