<svg width="60" height="60" fill="none" xmlns="http://www.w3.org/2000/svg"><path d="M42.422 0H17.578C7.886 0 0 7.886 0 17.578v24.844C0 52.115 7.886 60 17.578 60h24.844C52.115 60 60 52.114 60 42.422V17.578C60 7.886 52.114 0 42.422 0zm15.234 42.422c0 8.4-6.834 15.234-15.234 15.234H17.578c-8.4 0-15.234-6.834-15.234-15.234V17.578c0-8.4 6.834-15.234 15.234-15.234h24.844c8.4 0 15.234 6.834 15.234 15.234v24.844z" fill="#184D47"/><path d="M42.422 5.156H17.578c-6.85 0-12.422 5.573-12.422 12.422v24.844c0 6.85 5.573 12.422 12.422 12.422h7.149a1.172 1.172 0 000-2.344h-7.149C12.021 52.5 7.5 47.979 7.5 42.422V17.578C7.5 12.021 12.021 7.5 17.578 7.5h24.844c5.557 0 10.078 4.521 10.078 10.078v24.844c0 5.557-4.521 10.078-10.078 10.078h-7.07a1.172 1.172 0 100 2.344h7.07c6.85 0 12.422-5.573 12.422-12.422V17.578c0-6.85-5.573-12.422-12.422-12.422z" fill="#184D47"/><path d="M30.828 52.843A1.18 1.18 0 0030 52.5c-.308 0-.61.125-.828.343a1.18 1.18 0 00-.344.829A1.176 1.176 0 0030 54.844c.308 0 .61-.126.828-.344a1.18 1.18 0 00.344-.828c0-.308-.125-.61-.344-.829zM20.605 18.247a1.172 1.172 0 00-1.656-.054l-.052.049a1.172 1.172 0 101.608 1.704l.046-.043a1.172 1.172 0 00.054-1.656z" fill="#184D47"/><path d="M30 13.828c-2.574 0-5.136.62-7.408 1.793a1.172 1.172 0 001.075 2.083A13.674 13.674 0 0130 16.172c7.625 0 13.828 6.203 13.828 13.828 0 7.625-6.203 13.828-13.828 13.828-7.625 0-13.828-6.203-13.828-13.828 0-2.393.62-4.75 1.794-6.818a1.172 1.172 0 00-2.038-1.157 16.177 16.177 0 00-2.1 7.975c0 8.917 7.255 16.172 16.172 16.172 8.917 0 16.172-7.255 16.172-16.172 0-8.917-7.255-16.172-16.172-16.172z" fill="#184D47"/><path d="M30 19.453c-5.816 0-10.547 4.732-10.547 10.547 0 5.816 4.732 10.547 10.547 10.547 5.816 0 10.547-4.731 10.547-10.547 0-5.816-4.731-10.547-10.547-10.547zm0 18.75c-4.523 0-8.203-3.68-8.203-8.203s3.68-8.203 8.203-8.203 8.203 3.68 8.203 8.203-3.68 8.203-8.203 8.203zm15.38-28.037a4.458 4.458 0 00-4.452 4.453 4.458 4.458 0 004.453 4.453 4.458 4.458 0 004.453-4.453 4.458 4.458 0 00-4.453-4.453zm0 6.563a2.112 2.112 0 01-2.108-2.11c0-1.163.946-2.11 2.109-2.11s2.11.947 2.11 2.11c0 1.163-.947 2.11-2.11 2.11z" fill="#184D47"/></svg>