<svg xmlns="http://www.w3.org/2000/svg" viewBox="0 0 304.79 410.38"><defs><style>.cls-1{fill:#fff}</style></defs><g id="Слой_2" data-name="Слой 2"><g id="Слой_1-2" data-name="Слой 1"><path class="cls-1" d="M304.59 157.89c0-10.09-11-14.67-11-14.67-56.41-24.31-33.94-51.37-59.59-59.62s-38.09-23.85-43.6-30.27 5-24.3-25.68-42.19-88.51-11.46-124.28 0S-3.13 61.59 1 63.88s14.22-16.51 14.22-16.51C56-1.7 167.47 44.16 144.54 55.17s-41.27-21.1-62.37-11 .46 72.46.46 72.46c-27 30.27-43.11 100.89-43.11 100.89-29.35-23.86-34.39-24.32-30.26 3.2C26.54 318.09 88.08 346 89 346.37c-64.65-111.44 11-211.41 16.52-218.75S94.1 78.1 101.44 73.05s56.4 18.8 50.86 28.43-30.23-5-33.53 4.59 11.56 31.18 12.47 38.52-6.87 15.14-14.67 31.65 9.46 54.11 2.2 49.07c-14.3-9.63-11.83-48.62-16.88-49.07s-42.65 55.94-8.71 125.65S106 366.55 112 377.56s19.26-34.85 14-55 0-13.76 0-13.76c22.76 37.15-10.84 106.4 0 101.35s46-63.29 28.4-116.97c-34.62-107.31 8-135.06 8-135.06-19.49 22.7-3.82 80.29-.52 86 2.47 5.26 18 28.38 12.21 31.82s-13.07-11-14.44-10.32-3.9 17.2.61 23.09c27.82 41 5.46 72.82 4.49 74.48s-1.15 6.31 5.56 1c3.5-3.32 12-7.28 12.73-6.3s.34 2.75-4.13 7.68-18.35 18.8-16.05 21.09 5.5 0 25.22-19.72c62.37-64.66 19.26-133 11.47-143.08S184.9 191.37 215.17 206c69.25 26.14 74.75-26.14 73.37-32.56s-9.17-3.66-7.33-12.2 23.38-3.35 23.38-3.35zm-86.06-37.6s-4 6.42-10.7 1.37-4.43-8.66-4.43-8.66l-9.33-4.74s30.12-10.39 32.56 20.18z"/><path class="cls-1" d="M283 208.56s9.4-13.3 11.47-21.55 5-10.32 8.25-8.94 6 9.17-19.72 30.49zm-72.88 11.7s-8-4.59-3.44-11.7 14.22 12.16 33.94 11.7 30-9.83 34.4-6.63-11.93 22.68-22 21.3-14-8.48-20.86-10.78-11.26 3.9-22.04-3.89z"/></g></g></svg>