<svg width="124" height="63" fill="none" xmlns="http://www.w3.org/2000/svg"><path d="M71.075 62.233H51.276v-8.796h-6.934l-2.065 4.59h-12.07l9.264-20.81H21.397l-9.302 20.81H0l23.99-53.86h12.107l-9.276 20.81h18.074l5.651-12.7h-1.12V0h19.799v12.278h-1.108l7.552 17.052V17.026h11.025l5.55 12.462V.818h11.719V45.8H124v12.226H92.937l-.529-1.095-5.034-11.236v12.33H76.399l-10.07-22.538.567 14.428h4.14l.039 12.318zm-16.023-3.956H67.3v-4.365h-3.977L61.8 15.931l17.004 38.14h4.833V27.905L95.303 54.07h24.921v-4.352h-19.999V4.774h-4.166v42.557l-11.73-26.35h-4.847v26.205L62.19 8.322h3.26V3.956H53.202v4.366h3.273l-9.176 20.612H20.868l9.34-20.81H26.43L5.928 54.07h3.776l9.276-20.81h26.33l-9.213 20.81h3.776l2.065-4.629h14.55l1.975 4.431h-3.41v4.405zm3.776-11.988L51.1 28.895l6.47-14.507 1.258 31.901zm-4.304-1.173H43.876l5.336-12.001 5.312 12z" fill="#FAD586"/></svg>