<svg width="139" height="70" fill="none" xmlns="http://www.w3.org/2000/svg"><path d="M79.672 69.762H57.48v-9.86h-7.774l-2.313 5.144h-13.53l10.383-23.328h-20.26L13.559 65.046H0L26.891 4.67h13.573L30.066 28h20.26l6.335-14.236h-1.256V0H77.6v13.763h-1.242l8.465 19.115V19.085h12.36l6.221 13.97V.917h13.136v50.425H139v13.704h-34.821l-.592-1.227-5.644-12.595v13.822H85.641L74.353 39.78l.635 16.173h4.642l.043 13.808zm-17.96-4.435H75.44v-4.893h-4.46l-1.707-42.576 19.061 42.753h5.418v-29.33l13.079 29.33h27.935v-4.878h-22.419V5.352h-4.67v47.705L94.529 23.52h-5.432v29.374L69.712 9.328h3.654V4.435H59.638v4.893h3.668L53.021 32.434H23.392l10.47-23.328h-4.234L6.645 60.611h4.233l10.398-23.328h29.516L40.464 60.611h4.233l2.314-5.189h16.31l2.214 4.967h-3.823v4.938zm4.233-13.438l-8.663-19.5 7.252-16.26 1.41 35.76zm-4.826-1.316H49.183l5.982-13.453 5.954 13.453z" fill="#184D47"/></svg>