<svg width="60" height="60" fill="none" xmlns="http://www.w3.org/2000/svg"><path d="M50.952 40.168l-.595-.971a25.617 25.617 0 00-4.18-5.174L44.19 32.13a.52.52 0 01-.067-.679l2.714-3.868a16.89 16.89 0 001.074-1.746l2.32-4.34a2.4 2.4 0 00-.058-2.384 2.4 2.4 0 00-2.073-1.176l-5.021-.006h-.003a2.65 2.65 0 00-2.428 1.585l-.531 1.212a29.964 29.964 0 01-5.507 8.382v-8.846a2.337 2.337 0 00-2.334-2.334h-7.11a2.12 2.12 0 00-1.72 3.352l.497.693c.488.68.745 1.48.745 2.317v6.464c-.876-1.018-1.944-2.401-2.848-3.991-1.384-2.436-2.376-5.275-2.844-6.751a2.977 2.977 0 00-2.848-2.084h-5.085c-.718 0-1.378.328-1.811.9a2.254 2.254 0 00-.376 1.988l.949 3.366a31.012 31.012 0 002.375 5.972 1.172 1.172 0 102.076-1.088 28.665 28.665 0 01-2.195-5.52l-.923-3.275h4.99c.282 0 .528.18.614.45.496 1.563 1.55 4.578 3.04 7.2 1.223 2.15 2.707 3.943 3.736 5.067a1.997 1.997 0 002.21.517 2 2 0 001.284-1.876v-7.339a6.28 6.28 0 00-1.185-3.684l-.24-.335h6.66v9.398c0 .688.345 1.32.923 1.692a2.002 2.002 0 001.922.137l.483-.22c.223-.102.42-.243.589-.421a32.312 32.312 0 006.079-9.19l.532-1.211a.307.307 0 01.28-.183h.001l5.021.005c.017 0 .043 0 .065.037.022.037.01.06.002.075l-2.32 4.34a14.67 14.67 0 01-.925 1.505l-2.715 3.868a2.85 2.85 0 00.37 3.723l1.988 1.893a23.28 23.28 0 013.798 4.7l.594.97a.176.176 0 01.004.192c-.054.097-.138.097-.165.097h-4.335c-.557 0-1.099-.23-1.487-.629l-4.334-4.456a7.44 7.44 0 00-3.749-2.086 2.148 2.148 0 00-1.816.426 2.149 2.149 0 00-.805 1.682v4.38a.684.684 0 01-.684.683 15.468 15.468 0 01-9.346-3.165 28.693 28.693 0 01-3.047-2.694 1.172 1.172 0 00-1.674 1.64 31.062 31.062 0 003.297 2.916 17.825 17.825 0 0010.77 3.646 3.03 3.03 0 003.027-3.027v-4.143a5.1 5.1 0 012.346 1.376l4.335 4.456a4.443 4.443 0 003.167 1.338h4.335a2.535 2.535 0 002.16-3.855z" fill="#184D47"/><path d="M16.413 32.526l-.013-.018a1.172 1.172 0 10-1.905 1.365l.008.012.957-.676-.952.683a1.17 1.17 0 001.635.27c.526-.378.647-1.11.27-1.636zm7.595 19.505h-9.551a1.172 1.172 0 000 2.344h9.55a1.172 1.172 0 100-2.344zm5.332 0h-.014a1.172 1.172 0 000 2.344h.014a1.172 1.172 0 100-2.344z" fill="#184D47"/><path d="M52.266 0H7.734C3.47 0 0 3.47 0 7.734v44.532C0 56.53 3.47 60 7.734 60h44.532C56.53 60 60 56.53 60 52.266V7.734C60 3.47 56.53 0 52.266 0zm5.39 52.266a5.397 5.397 0 01-5.39 5.39H7.734a5.397 5.397 0 01-5.39-5.39V7.734a5.397 5.397 0 015.39-5.39h44.532a5.397 5.397 0 015.39 5.39v44.532z" fill="#184D47"/></svg>